<svg width="388" height="37" viewBox="0 0 388 37" fill="none" xmlns="http://www.w3.org/2000/svg">
<path d="M13.914 4.64C10.5493 4.64 8.034 5.40766 6.368 6.943C4.73467 8.44566 3.918 10.6343 3.918 13.509V18.311H20.284V21.447H3.918V36H0.292V13.46C0.292 9.70333 1.468 6.76333 3.82 4.64C6.172 2.484 9.48767 1.406 13.767 1.406C17.9157 1.406 21.2477 2.30433 23.763 4.101L22.44 7.09C20.2187 5.45666 17.3767 4.64 13.914 4.64ZM44.3866 36.294C40.9893 36.294 37.9023 35.5427 35.1256 34.04C32.3816 32.5047 30.2256 30.414 28.6576 27.768C27.1223 25.122 26.3546 22.1493 26.3546 18.85C26.3546 15.5507 27.1223 12.578 28.6576 9.932C30.2256 7.286 32.3816 5.21166 35.1256 3.709C37.9023 2.17367 40.9893 1.406 44.3866 1.406C47.784 1.406 50.8383 2.15733 53.5496 3.66C56.2936 5.16267 58.4496 7.25333 60.0176 9.932C61.5856 12.578 62.3696 15.5507 62.3696 18.85C62.3696 22.1493 61.5856 25.1383 60.0176 27.817C58.4496 30.463 56.2936 32.5373 53.5496 34.04C50.8383 35.5427 47.784 36.294 44.3866 36.294ZM44.3866 33.06C47.098 33.06 49.548 32.4557 51.7366 31.247C53.9253 30.0057 55.6403 28.307 56.8816 26.151C58.123 23.9623 58.7436 21.5287 58.7436 18.85C58.7436 16.1713 58.123 13.754 56.8816 11.598C55.6403 9.40933 53.9253 7.71067 51.7366 6.502C49.548 5.26066 47.098 4.64 44.3866 4.64C41.6753 4.64 39.209 5.26066 36.9876 6.502C34.799 7.71067 33.0676 9.40933 31.7936 11.598C30.5523 13.754 29.9316 16.1713 29.9316 18.85C29.9316 21.5287 30.5523 23.9623 31.7936 26.151C33.0676 28.307 34.799 30.0057 36.9876 31.247C39.209 32.4557 41.6753 33.06 44.3866 33.06ZM85.4911 36.294C82.0938 36.294 79.0068 35.5427 76.2301 34.04C73.4861 32.5047 71.3301 30.414 69.7621 27.768C68.2268 25.122 67.4591 22.1493 67.4591 18.85C67.4591 15.5507 68.2268 12.578 69.7621 9.932C71.3301 7.286 73.4861 5.21166 76.2301 3.709C79.0068 2.17367 82.0938 1.406 85.4911 1.406C88.8885 1.406 91.9428 2.15733 94.6541 3.66C97.3981 5.16267 99.5541 7.25333 101.122 9.932C102.69 12.578 103.474 15.5507 103.474 18.85C103.474 22.1493 102.69 25.1383 101.122 27.817C99.5541 30.463 97.3981 32.5373 94.6541 34.04C91.9428 35.5427 88.8885 36.294 85.4911 36.294ZM85.4911 33.06C88.2025 33.06 90.6525 32.4557 92.8411 31.247C95.0298 30.0057 96.7448 28.307 97.9861 26.151C99.2275 23.9623 99.8481 21.5287 99.8481 18.85C99.8481 16.1713 99.2275 13.754 97.9861 11.598C96.7448 9.40933 95.0298 7.71067 92.8411 6.502C90.6525 5.26066 88.2025 4.64 85.4911 4.64C82.7798 4.64 80.3135 5.26066 78.0921 6.502C75.9035 7.71067 74.1721 9.40933 72.8981 11.598C71.6568 13.754 71.0361 16.1713 71.0361 18.85C71.0361 21.5287 71.6568 23.9623 72.8981 26.151C74.1721 28.307 75.9035 30.0057 78.0921 31.247C80.3135 32.4557 82.7798 33.06 85.4911 33.06ZM111.602 1.7H125.567C129.193 1.7 132.394 2.435 135.171 3.905C137.947 5.34233 140.103 7.36767 141.639 9.981C143.174 12.5617 143.942 15.518 143.942 18.85C143.942 22.182 143.174 25.1547 141.639 27.768C140.103 30.3487 137.947 32.374 135.171 33.844C132.394 35.2813 129.193 36 125.567 36H111.602V1.7ZM125.371 32.864C128.376 32.864 131.006 32.276 133.26 31.1C135.514 29.8913 137.261 28.2417 138.503 26.151C139.744 24.0277 140.365 21.594 140.365 18.85C140.365 16.106 139.744 13.6887 138.503 11.598C137.261 9.47467 135.514 7.825 133.26 6.649C131.006 5.44033 128.376 4.836 125.371 4.836H115.228V32.864H125.371ZM167.176 1.406C171.292 1.406 174.51 2.631 176.829 5.081C179.181 7.531 180.357 11.0263 180.357 15.567V36H176.731V15.665C176.731 12.039 175.833 9.295 174.036 7.433C172.239 5.571 169.724 4.64 166.49 4.64C163.093 4.64 160.447 5.63633 158.552 7.629C156.657 9.589 155.71 12.5453 155.71 16.498V36H152.084V1.7H155.563V7.482C157.752 3.43133 161.623 1.406 167.176 1.406ZM188.973 36V1.21H212.591V8.266H197.009V15.763H209.847V22.28H197.009V36H188.973ZM217.36 36V1.21H225.396V36H217.36ZM259.05 8.266H248.466V36H240.43V8.266H229.797V1.21H259.05V8.266ZM271.5 16.106V36H263.464V1.21H269.834L285.955 21.692V1.21H293.991V36H287.425L271.5 16.106ZM325.586 28.944V36H301.135V1.21H325.145V8.266H309.171V15.028H322.891V21.545H309.171V28.944H325.586ZM351.832 11.402C351.734 11.2387 351.391 10.9937 350.803 10.667C350.215 10.3077 349.48 9.932 348.598 9.54C347.716 9.148 346.752 8.805 345.707 8.511C344.661 8.217 343.616 8.07 342.571 8.07C341.199 8.07 340.137 8.315 339.386 8.805C338.634 9.26233 338.259 9.981 338.259 10.961C338.259 11.745 338.536 12.3657 339.092 12.823C339.68 13.2803 340.513 13.6887 341.591 14.048C342.669 14.3747 343.992 14.7667 345.56 15.224C347.781 15.812 349.708 16.5307 351.342 17.38C352.975 18.1967 354.216 19.2583 355.066 20.565C355.948 21.8717 356.389 23.603 356.389 25.759C356.389 27.719 356.029 29.385 355.311 30.757C354.592 32.0963 353.612 33.1907 352.371 34.04C351.162 34.8567 349.774 35.461 348.206 35.853C346.638 36.2123 345.021 36.392 343.355 36.392C341.656 36.392 339.908 36.2287 338.112 35.902C336.348 35.5427 334.649 35.0527 333.016 34.432C331.382 33.7787 329.88 32.9947 328.508 32.08L332.036 25.073C332.166 25.2363 332.591 25.5467 333.31 26.004C334.028 26.4287 334.91 26.886 335.956 27.376C337.034 27.8333 338.226 28.2417 339.533 28.601C340.839 28.9603 342.162 29.14 343.502 29.14C344.939 29.14 346.001 28.9113 346.687 28.454C347.405 27.9967 347.765 27.3597 347.765 26.543C347.765 25.661 347.389 24.975 346.638 24.485C345.919 23.995 344.923 23.554 343.649 23.162C342.407 22.77 340.97 22.329 339.337 21.839C337.213 21.1857 335.449 20.4507 334.045 19.634C332.673 18.8173 331.644 17.821 330.958 16.645C330.304 15.469 329.978 13.999 329.978 12.235C329.978 9.785 330.549 7.727 331.693 6.061C332.869 4.36233 334.437 3.08833 336.397 2.239C338.357 1.357 340.496 0.915999 342.816 0.915999C344.449 0.915999 346.017 1.112 347.52 1.504C349.055 1.896 350.476 2.386 351.783 2.974C353.122 3.562 354.314 4.15 355.36 4.738L351.832 11.402ZM382.468 11.402C382.37 11.2387 382.027 10.9937 381.439 10.667C380.851 10.3077 380.116 9.932 379.234 9.54C378.352 9.148 377.389 8.805 376.343 8.511C375.298 8.217 374.253 8.07 373.207 8.07C371.835 8.07 370.774 8.315 370.022 8.805C369.271 9.26233 368.895 9.981 368.895 10.961C368.895 11.745 369.173 12.3657 369.728 12.823C370.316 13.2803 371.149 13.6887 372.227 14.048C373.305 14.3747 374.628 14.7667 376.196 15.224C378.418 15.812 380.345 16.5307 381.978 17.38C383.612 18.1967 384.853 19.2583 385.702 20.565C386.584 21.8717 387.025 23.603 387.025 25.759C387.025 27.719 386.666 29.385 385.947 30.757C385.229 32.0963 384.249 33.1907 383.007 34.04C381.799 34.8567 380.41 35.461 378.842 35.853C377.274 36.2123 375.657 36.392 373.991 36.392C372.293 36.392 370.545 36.2287 368.748 35.902C366.984 35.5427 365.286 35.0527 363.652 34.432C362.019 33.7787 360.516 32.9947 359.144 32.08L362.672 25.073C362.803 25.2363 363.228 25.5467 363.946 26.004C364.665 26.4287 365.547 26.886 366.592 27.376C367.67 27.8333 368.863 28.2417 370.169 28.601C371.476 28.9603 372.799 29.14 374.138 29.14C375.576 29.14 376.637 28.9113 377.323 28.454C378.042 27.9967 378.401 27.3597 378.401 26.543C378.401 25.661 378.026 24.975 377.274 24.485C376.556 23.995 375.559 23.554 374.285 23.162C373.044 22.77 371.607 22.329 369.973 21.839C367.85 21.1857 366.086 20.4507 364.681 19.634C363.309 18.8173 362.28 17.821 361.594 16.645C360.941 15.469 360.614 13.999 360.614 12.235C360.614 9.785 361.186 7.727 362.329 6.061C363.505 4.36233 365.073 3.08833 367.033 2.239C368.993 1.357 371.133 0.915999 373.452 0.915999C375.086 0.915999 376.654 1.112 378.156 1.504C379.692 1.896 381.113 2.386 382.419 2.974C383.759 3.562 384.951 4.15 385.996 4.738L382.468 11.402Z" fill="#02182B"/>
</svg>
